<?xml version="1.0" encoding="iso-8859-1"?>
<!-- Uploaded to: SVG Repo, www.svgrepo.com, Generator: SVG Repo Mixer Tools -->
<!DOCTYPE svg PUBLIC "-//W3C//DTD SVG 1.1//EN" "http://www.w3.org/Graphics/SVG/1.1/DTD/svg11.dtd">
<svg fill="#000000" version="1.1" id="Capa_1" xmlns="http://www.w3.org/2000/svg" xmlns:xlink="http://www.w3.org/1999/xlink" 
	 width="800px" height="800px" viewBox="0 0 558.957 558.957"
	 xml:space="preserve">
<g>
	<g>
		<rect y="390.396" width="171.021" height="131.846"/>
		<rect x="387.938" y="435.396" width="171.02" height="86.842"/>
		<path d="M372.637,435.396v-99.475H186.32v54.475v131.846h186.32v-86.846H372.637z M288.658,478.82c0,5.07-4.109,9.18-9.179,9.18
			c-5.07,0-9.18-4.109-9.18-9.18v-77.256l-10.331,10.367c-1.793,1.799-4.146,2.699-6.502,2.699c-2.344,0-4.688-0.893-6.481-2.678
			c-3.589-3.576-3.602-9.391-0.021-12.982l26.013-26.109c0.003-0.002,0.006-0.002,0.006-0.006c0.425-0.426,0.894-0.807,1.396-1.145
			c0.223-0.148,0.468-0.25,0.701-0.379c0.291-0.158,0.572-0.336,0.881-0.465c0.303-0.125,0.615-0.195,0.927-0.287
			c0.263-0.078,0.514-0.182,0.786-0.236c0.591-0.119,1.194-0.18,1.793-0.18c0.003,0,0.006,0,0.009,0
			c0.092,0,0.177,0.023,0.272,0.027c0.508,0.014,1.02,0.055,1.518,0.152c0.273,0.055,0.523,0.152,0.787,0.232
			c0.312,0.092,0.623,0.162,0.928,0.287c0.297,0.123,0.564,0.291,0.848,0.445c0.244,0.131,0.498,0.24,0.734,0.396
			c0.424,0.285,0.816,0.619,1.186,0.967c0.064,0.062,0.145,0.105,0.209,0.168c0.004,0.004,0.004,0.008,0.006,0.008
			c0.426,0.424,0.809,0.893,1.145,1.395c0.15,0.223,0.254,0.469,0.383,0.703c0.158,0.291,0.336,0.57,0.461,0.879
			c0.127,0.303,0.199,0.621,0.291,0.936c0.076,0.262,0.178,0.512,0.232,0.781c0.119,0.59,0.182,1.193,0.182,1.797
			c0,0.002,0,0.006,0,0.008v99.475H288.658z"/>
		<circle cx="288.102" cy="112.581" r="24.7"/>
		<path d="M261.863,173.662v36.548l-35.579,43.483c-3.586,4.385-3.14,10.808,1.025,14.651l27.289,25.187
			c2.06,1.9,4.664,2.84,7.261,2.84c2.886,0,5.762-1.16,7.874-3.445c4.012-4.346,3.742-11.123-0.606-15.135l-19.875-18.344
			l18.054-22.063h25.831v73.468c0,4.359,2.615,8.096,6.355,9.768c1.334,0.596,2.799,0.941,4.354,0.941s3.023-0.346,4.354-0.941
			c3.74-1.672,6.357-5.408,6.357-9.768v-89.206c0-0.731-0.078-1.444-0.215-2.136v-46.803l28.883-43.826
			c1.154-1.75,1.77-3.8,1.77-5.894V47.425c0-5.915-4.795-10.71-10.711-10.71c-5.914,0-10.709,4.795-10.709,10.71v72.354
			l-16.645,25.254h-42.687l-17.898-18.893l4.942-20.591c1.38-5.752-2.163-11.533-7.913-12.913
			c-5.759-1.383-11.536,2.164-12.913,7.913l-6.297,26.24c-0.845,3.522,0.146,7.234,2.638,9.865L261.863,173.662z"/>
	</g>
</g>
</svg>