<?xml version="1.0" encoding="iso-8859-1"?>
<!-- Uploaded to: SVG Repo, www.svgrepo.com, Generator: SVG Repo Mixer Tools -->
<svg fill="#000000" height="800px" width="800px" version="1.1" id="Layer_1" xmlns="http://www.w3.org/2000/svg" xmlns:xlink="http://www.w3.org/1999/xlink" 
	 viewBox="0 0 512 512" xml:space="preserve">
<g>
	<g>
		<g>
			<path d="M223.113,475.452c-95.642-14.208-172.356-90.923-186.556-186.573c-0.691-4.668-5.086-7.876-9.702-7.185
				c-4.659,0.691-7.876,5.035-7.185,9.694c15.3,103.014,97.929,185.643,200.943,200.943c0.418,0.068,0.845,0.094,1.263,0.094
				c4.156,0,7.799-3.038,8.431-7.279C230.997,480.486,227.78,476.143,223.113,475.452z"/>
			<path d="M288.879,36.548c95.65,14.208,172.365,90.923,186.564,186.573c0.631,4.241,4.267,7.279,8.431,7.279
				c0.41,0,0.836-0.026,1.263-0.094c4.659-0.691,7.876-5.035,7.185-9.694C477.03,117.598,394.402,34.97,291.388,19.669
				c-4.617-0.674-9.003,2.517-9.694,7.185C281.003,31.514,284.22,35.857,288.879,36.548z"/>
			<path d="M26.854,230.306c0.427,0.06,0.845,0.094,1.263,0.094c4.164,0,7.799-3.046,8.431-7.287
				c14.208-95.642,90.923-172.356,186.573-186.556c4.659-0.691,7.876-5.035,7.185-9.702c-0.691-4.651-5.018-7.834-9.694-7.185
				C117.598,34.97,34.97,117.598,19.669,220.612C18.978,225.271,22.195,229.615,26.854,230.306z"/>
			<path d="M485.146,281.694c-4.642-0.691-9.003,2.526-9.694,7.194c-14.208,95.642-90.923,172.356-186.573,186.556
				c-4.659,0.691-7.876,5.035-7.185,9.702c0.623,4.233,4.267,7.279,8.431,7.279c0.41,0,0.836-0.034,1.263-0.094
				c103.014-15.3,185.643-97.929,200.943-200.943C493.022,286.729,489.805,282.385,485.146,281.694z"/>
			<path d="M503.467,247.467H443.52c-4.352-96.734-82.253-174.635-178.987-178.987V8.533C264.533,3.823,260.71,0,256,0
				s-8.533,3.823-8.533,8.533V68.48C150.733,72.832,72.832,150.733,68.48,247.467H8.533C3.823,247.467,0,251.29,0,256
				s3.823,8.533,8.533,8.533H68.48c4.352,96.734,82.253,174.635,178.987,178.987v59.947c0,4.71,3.823,8.533,8.533,8.533
				s8.533-3.823,8.533-8.533V443.52c96.734-4.352,174.635-82.253,178.987-178.987h59.947c4.71,0,8.533-3.823,8.533-8.533
				S508.177,247.467,503.467,247.467z M256,426.667c-94.106,0-170.667-76.561-170.667-170.667S161.894,85.333,256,85.333
				S426.667,161.894,426.667,256S350.106,426.667,256,426.667z"/>
			<path d="M256,119.467c-75.281,0-136.533,61.252-136.533,136.533S180.719,392.533,256,392.533S392.533,331.281,392.533,256
				S331.281,119.467,256,119.467z M256,375.467c-65.877,0-119.467-53.589-119.467-119.467S190.123,136.533,256,136.533
				S375.467,190.123,375.467,256S321.877,375.467,256,375.467z"/>
			<path d="M256,213.333c9.412,0,17.067,7.654,17.067,17.067c0,4.71,3.823,8.533,8.533,8.533s8.533-3.823,8.533-8.533
				c0-15.855-10.923-29.107-25.6-32.922v-1.212c0-4.71-3.823-8.533-8.533-8.533s-8.533,3.823-8.533,8.533v1.212
				c-14.677,3.814-25.6,17.067-25.6,32.922c0,18.825,15.309,34.133,34.133,34.133c9.412,0,17.067,7.654,17.067,17.067
				c0,9.412-7.654,17.067-17.067,17.067c-9.412,0-17.067-7.654-17.067-17.067c0-4.71-3.823-8.533-8.533-8.533
				s-8.533,3.823-8.533,8.533c0,15.855,10.923,29.107,25.6,32.922v1.212c0,4.71,3.823,8.533,8.533,8.533s8.533-3.823,8.533-8.533
				v-1.212c14.677-3.814,25.6-17.067,25.6-32.922c0-18.825-15.309-34.133-34.133-34.133c-9.412,0-17.067-7.654-17.067-17.067
				C238.933,220.988,246.588,213.333,256,213.333z"/>
		</g>
	</g>
</g>
</svg>