<?xml version="1.0" encoding="iso-8859-1"?>
<!-- Uploaded to: SVG Repo, www.svgrepo.com, Generator: SVG Repo Mixer Tools -->
<!DOCTYPE svg PUBLIC "-//W3C//DTD SVG 1.1//EN" "http://www.w3.org/Graphics/SVG/1.1/DTD/svg11.dtd">
<svg fill="#000000" height="800px" width="800px" version="1.1" id="Capa_1" xmlns="http://www.w3.org/2000/svg" xmlns:xlink="http://www.w3.org/1999/xlink" 
	 viewBox="0 0 276.366 276.366" xml:space="preserve">
<g>
	<path d="M248.446,161.576c0.615-12.819,9.347-46.262-3.405-55.196c-10.863-7.61-34.463-5.049-47.538-3.29
		c-0.259-7.523-0.537-15.051-0.751-22.562c-0.004-0.142-0.068-0.24-0.086-0.371c7.681,0.754,17.142-2.392,21.126-7.196
		c8.272-9.976,1.591-21.393-7.847-26.979c6.072-5.835,6.722-16.452,0.437-23.122c-8.234-8.737-20.598-6.291-27.392,2.04
		c-4.447-4.908-11.124-5.764-16.147-3.186c0.388-11.553-13.514-21.25-25.467-21.688c-10.218-0.375-20.645,3.37-28.52,9.832
		c-1.917,1.573-4.159,3.515-6.055,5.698c-3.988-12.238-23.805-16.84-31.135-2.223C68.499,5.998,57.684,2.035,48.375,8.721
		c-8.463,6.077-10.602,18.958-1.522,24.741c-0.061,0.188-0.157,0.362-0.211,0.552c-18.556-3.728-26.895,13.642-19.559,29.681
		c7.287,15.933,16.476,25.625,12.38,45.126c-2.039,9.708-7.108,18.628-8.99,28.328c-1.196,6.165-1.602,11.261,0.206,15.869
		c0.865,8.077,5.963,16.133,12.855,19.348c-2.167,25.195-1.921,50.862-0.247,76.061c0.357,5.376-0.731,18.378,4.641,22.792
		c9.157,7.524,33.962,4.107,43.967,4.4c24.477,0.719,48.965,0.921,73.451,0.592c33.47-0.45,35.013-5.523,35.306-40.786
		c0.015-1.779-0.038-3.563-0.031-5.343c0.311,0.293,0.698,0.532,1.263,0.614c10.382,1.51,33.924,8.157,41.787-0.331
		c3.903-4.214,2.245-15.42,2.475-20.299C246.91,193.904,247.671,177.74,248.446,161.576z M198.201,123.001
		c0.123,0.011,0.216,0.063,0.349,0.059c12.813-0.482,26.399-4.005,30.321,11.064c2.439,9.372-0.847,25.155-1.708,34.727
		c-0.721,8.012,0.652,28.783-4.596,34.254c-5.917,6.167-14.976,3.377-22.125,4.495C200.136,179.418,199.206,151.196,198.201,123.001
		z M36.007,155.539c-6.648-19.788,11.616-41.084,10.695-61.088c-0.278-6.044-1.163-10.239-3.576-15.842
		c-2.172-4.164-4.676-8.118-7.511-11.862c-8.474-9.349-4.881-18.372,10.514-27.078c0.317,2.978,1.492,5.851,3.749,8.016
		c1.097,1.052,3.031-0.313,2.162-1.668c-3.645-5.692-2.296-13.185,3.431-16.998c2.189-1.457,0.302-4.63-2.048-3.504
		c-2.108,1.012-3.713,2.622-4.923,4.501c-1.177-3.103-2.354-6.207-3.532-9.312c1.272-5.095,4.351-7.982,9.236-8.66
		c8.148-3.055,14.961,0.314,20.083,7.659c1.253,1.797,4.152,1.667,4.793-0.627c2.552-9.125,15.187-13.902,20.816-4.46
		c2.489,4.175,2.629,7.611,1.021,12.336c-0.847,2.49,2.997,4.091,4.239,1.788c0.107-0.199,0.149-0.385,0.248-0.583
		c0.477-0.288,0.844-0.771,0.698-1.524c-0.007-0.034,0-0.067-0.006-0.101c0.863-2.125,1.326-4.16,1.382-6.079
		c4.633-7.523,18.896-13.235,24.902-14.356c15.111-2.825,32.824,4.997,26.619,23.164c-0.107,0.314-0.111,0.619-0.068,0.915
		c-5.194-1.952-11.111-2.511-16.058-1.865c-1.954,0.254-2.099,3.123,0,3.159c4.336,0.075,8.529,0.807,12.539,2.478
		c3.77,1.572,6.6,4.122,10.009,6.248c2.415,1.506,4.371-1.723,2.828-3.665c-1.093-1.376-2.47-2.497-3.944-3.512
		c7.025-9.577,12.505-10.345,16.409-2.119c0.89,1.859,3.665,1.622,4.619,0c10.308-17.52,32.703,0.168,18.471,12.434
		c-0.17-0.048-0.338-0.116-0.508-0.16c-1.255-0.323-2.259,1.04-1.961,2.062c-2.284,1.517-0.805,5.136,1.935,4.471
		c1.156-0.281,2.16-0.769,3.152-1.267c6.167,3.859,11.646,9.91,8.859,17.636c-3.462,9.597-22.04,12.727-25.334,1.424
		c-0.748-2.566-4.255-1.889-4.47,0.605c-0.059,0.682-0.002,1.275,0.023,1.893c-1.002,0.356-1.683,1.59-0.736,2.647
		c15.463,17.264-24.764,34.779-30.345,13.359c-0.396-1.521-2.04-1.935-3.247-1.441c0.061-0.335,0.087-0.669,0.136-1.005
		c4.143-0.36,8.057-2.123,10.433-5.657c1.207-1.796-1.173-4.092-2.955-2.955c-5.692,3.634-11.245,6.095-17.712,2.361
		c-2.108-1.217-3.858,1.888-1.887,3.229c2.667,1.815,6.084,2.857,9.528,3.033c-1.455,4.767-3.582,8.847-8.22,11.48
		c-6.781,3.849-15.182,2.39-17.175-6.352c-0.423-1.855-3.18-2.709-4.459-1.177c-5.679,6.802-13.732,3.454-17.083-3.66
		c-1.485-3.153-1.448-6.768-2.099-10.163c-0.359-1.873-2.85-1.471-3.407-0.005c-0.614-0.933-2.095-0.798-2.256,0.589
		c-0.734,6.341-4.809,12.268-11.35,13.538c-2.514,0.489-5.166,0.271-7.582-0.614c-2.341-0.857-3.927-2.684-6.386-3.135
		c-1.593-0.293-3.029,0.95-2.621,2.621c0.137,0.562,0.438,1.012,0.687,1.499c-7.3-2.538-9.716,4.55-10.139,11.64
		c-0.604,10.131,2.045,20.201,4.022,30.04c1.768,8.795,3.309,16.78,1.287,25.665C57.777,173.81,41.916,168.48,36.007,155.539z
		 M194.097,240.209c-0.608,5.604-1.135,10.971-2.271,16.369c-0.971,1.484-2.124,2.91-3.674,4.208
		c-2.37,9.092-8.089,12.194-17.157,9.305c-24.91,5.016-65.367,3.89-90.396-0.495c-12.663-2.219-25.425-7.525-31.779-21.167
		c-2.806-6.025-0.913-21.501-1.102-28.692c-0.406-15.432-0.497-30.858-1.128-46.279c3.929,0.916,8.271,0.255,12.669-2.755
		c7.842-5.368,9.361-15.32,8.914-24.097c-0.371-7.288-13.252-58.522-1.179-55.653c0.592,0.14,1.079-0.199,1.371-0.646
		c4.239,3.89,12.886,4.021,17.492,2.19c4.637-1.843,8.106-5.623,9.763-10.116c2.161,10.63,14.728,18.475,24.088,11.618
		c3.117,5.748,9.641,9.191,16.472,7.962c7.128-1.283,11.703-6.855,13.913-13.287c2.219,12.333,18.83,14.877,29.018,10.736
		c5.154-2.095,9.369-6.215,11.541-10.983c0.796,30.079,1.708,60.155,2.525,90.234c0.415,15.283,0.971,30.571,1.223,45.859
		c0.075,4.558,0.559,9.663,0.502,14.569C194.504,239.284,194.162,239.608,194.097,240.209z M243.479,161.576
		c-0.685,12.932-1.37,25.863-2.069,38.794c-0.524,9.693,0.479,13.496-6.688,20.947c-9.542,9.919-16.933,6.324-31.413,4.209
		c-1.192-0.174-2.124,0.373-2.708,1.154c0.007-5.142-0.083-10.29-0.128-15.436c0.039-0.01,0.077-0.02,0.116-0.029
		c1.077-0.272,0.93-1.704,0-2.04c16.941,6.136,24.656,8.245,28.227-12.038c2.247-12.758,3.53-25.77,4.39-38.686
		c0.804-12.069,3.283-27.448-0.32-39.101c-0.26-0.843-0.935-1.646-1.837-1.838c-10.266-2.172-22.099-0.145-32.498,0.214
		c-0.202,0.007-0.353,0.085-0.531,0.127c-0.143-4.007-0.286-8.016-0.425-12.021c10.692,0.378,33.134-2.007,40.488,3.242
		C250.211,117.733,244.12,149.466,243.479,161.576z"/>
	<path d="M89.486,110.053c-0.825-1.902-3.399-1.474-4.484-0.106c0.249-0.47,0.414-1.026,0.679-1.48
		c0.692-1.187-1.024-2.112-1.802-1.053c-13.905,18.938-10.793,50.915-12.548,73.326c-1.627,20.777-10.625,55.793,0.99,74.85
		c0.598,0.981,1.79,1.481,2.906,1.183c16.383-4.385,15.857-45.935,17.479-58.893C96.249,169.6,101.142,136.922,89.486,110.053z
		 M89.62,176.732c-0.873,11.933-2.301,23.825-4.192,35.638c-1.133,7.081-0.499,28.602-8.586,22.663
		c-9.093-6.678-1.576-42.899-0.854-54.294c1.285-20.267-0.864-50.8,8.542-69.764c-0.049,0.349-0.029,0.717,0.134,1.11
		C93.096,132.39,91.197,155.187,89.62,176.732z"/>
	<path d="M128.443,109.481c-0.51-3.448-5.707-1.967-5.227,1.441c1.637,11.627,7.233,124.518-3.547,123.395
		c-13.122-1.367,0.876-109.987,2.613-121.59c0.286-1.911-2.58-2.788-2.963-0.817c-5.877,30.235-8.908,60.773-8.706,91.601
		c0.087,13.229-5.245,42.153,8.487,49.837c1.067,0.597,2.252,0.368,3.143-0.405c11.371-9.879,7.716-41.226,8.658-54.697
		C132.981,168.481,132.81,139.021,128.443,109.481z"/>
	<path d="M171.189,196.379c-0.727-25.467,0.016-51.852-8.694-76.033c0.34-3.382,0.671-6.764,1.033-10.144
		c0.226-2.106-3.436-2.626-3.73-0.505c-0.291,2.099-0.504,4.206-0.778,6.307c-1.934-0.155-3.944,1.28-3.049,3.546
		c0.731,1.853,1.308,3.741,1.919,5.622c-3.07,25.921-4.915,51.948-5.233,78.074c-0.217,17.845-3.294,38.435,8.618,53.074
		c1.229,1.51,3.528,0.793,4.449-0.573C176.765,239.366,171.719,214.932,171.189,196.379z M159.048,236.799
		c-7.261-12.604-1.13-46.5-0.602-60.99c0.479-13.131,1.397-26.219,2.535-39.291c3.743,17.733,3.655,36.317,4.269,54.417
		c0.308,9.072,0.514,18.147,0.647,27.224c0.094,5.446,0.146,10.891,0.158,16.339C161.034,245.225,158.698,245.993,159.048,236.799z"
		/>
</g>
</svg>