<?xml version="1.0" encoding="iso-8859-1"?>
<!-- Uploaded to: SVG Repo, www.svgrepo.com, Generator: SVG Repo Mixer Tools -->
<svg fill="#000000" height="800px" width="800px" version="1.1" id="Layer_1" xmlns="http://www.w3.org/2000/svg" xmlns:xlink="http://www.w3.org/1999/xlink" 
	 viewBox="0 0 463.056 463.056" xml:space="preserve">
<g transform="translate(0 -540.36)">
	<g>
		<g>
			<circle cx="135.378" cy="855.116" r="8.3"/>
			<circle cx="135.378" cy="938.016" r="8.3"/>
			<circle cx="193.178" cy="895.816" r="8.3"/>
			<circle cx="293.778" cy="755.616" r="8.3"/>
			<path d="M403.477,564.516c-11.3-9.8-37.9-21.6-91,7.3c-13.7-9.2-56.1-35.6-82.5-30.9c-7.4,1.3-13.1,4.9-17.1,10.5
				c-79.6,111.6-151.6,214.6-158.5,224.5c-5.7,7.7-9.3,16.9-10.2,26.7c-1.5,17.4,5.7,35,20.5,50l12.3,143.9c0.3,3.9,3.6,6.9,7.5,6.9
				h171c0.3,0,0.5,0,0.8,0c0.1,0,0.1,0,0.2,0c0.2,0,0.4-0.1,0.6-0.1c0.1,0,0.2,0,0.2-0.1c0.2-0.1,0.4-0.1,0.6-0.2
				c0.1,0,0.1,0,0.2-0.1c0.3-0.1,0.5-0.2,0.7-0.3c0,0,0,0,0.1,0c0.2-0.1,0.4-0.2,0.6-0.4c0.1-0.1,0.2-0.1,0.2-0.2
				c0.1-0.1,0.3-0.2,0.4-0.3c0.1-0.1,0.2-0.1,0.2-0.2c0.2-0.2,0.4-0.3,0.6-0.5c0,0,0,0,0-0.1c0.2-0.2,0.3-0.4,0.5-0.6
				c0,0,0,0,0.1-0.1l142.1-202.6c0.8-1.2,1.3-2.6,1.4-4l6.2-152.9C423.977,608.216,421.077,579.816,403.477,564.516z
				 M261.277,845.916c-0.4,0.8-0.6,1.6-0.7,2.5l-12,139.8h-157.2l-12-139.7c-0.2-1.8-1-3.5-2.3-4.8c-16.4-15.5-18.8-30.2-17.9-39.8
				c0.6-6.7,3-13,6.8-18.4c0.1-0.1,0.2-0.2,0.2-0.3c0,0,0.1-0.2,0.4-0.6c2.5-3.3,5.7-6.3,9.3-8.7c33-19.3,89.1,21.6,89.6,22
				c2.6,2,6.2,2,8.9,0c31-22.5,66.8-28,85.1-13.1C273.477,796.216,274.077,817.916,261.277,845.916z M396.877,636.216
				c-0.3,0.8-0.5,1.6-0.5,2.5l-6.2,152l-124.8,178l10.1-117.7c15.1-33.7,12.7-62-6.5-77.7c-11.5-9.4-28.2-13.3-47.1-11
				c-17.3,2.1-35.1,9.2-51.9,20.4c-12.9-8.6-50.8-31.6-83.8-26.2c27.9-39.8,81.4-115.9,138.9-196.5c0,0,0-0.1,0.1-0.1
				c1.6-2.4,4-3.7,7.4-4.3c20.2-3.6,61.1,21.2,75.2,31.1c2.4,1.7,5.5,1.8,8,0.4c34.9-19.9,63.3-24,77.8-11.3
				C406.177,586.716,407.477,609.916,396.877,636.216z"/>
			<path d="M373.977,632.716c-3.5-2.3-8.1-1.3-10.4,2.2l-59.1,90.8c-2.3,3.5-1.3,8.1,2.2,10.4c1.3,0.8,2.7,1.2,4.1,1.2
				c2.5,0,4.9-1.2,6.3-3.4l59.1-90.8C378.477,639.616,377.477,635.016,373.977,632.716z"/>
		</g>
	</g>
</g>
</svg>