<?xml version="1.0" encoding="iso-8859-1"?>
<!-- Uploaded to: SVG Repo, www.svgrepo.com, Generator: SVG Repo Mixer Tools -->
<svg fill="#000000" height="800px" width="800px" version="1.1" id="Layer_1" xmlns="http://www.w3.org/2000/svg" xmlns:xlink="http://www.w3.org/1999/xlink" 
	 viewBox="0 0 463.001 463.001" xml:space="preserve">
<g transform="translate(0 -540.36)">
	<g>
		<g>
			<circle cx="364.27" cy="734.058" r="8"/>
			<circle cx="339.47" cy="768.058" r="8"/>
			<circle cx="314.47" cy="717.658" r="8"/>
			<path d="M461.97,809.26c0.2-1.1,0.3-2.3,0.4-3.4c0.5-8.6,0.8-18.9-0.6-30.4c3.2-33-6.5-65.9-27.8-95.1
				c-20.7-28.3-51-51.2-87.4-66.1h-0.1c-36.1-14.1-77.6-21.9-117.1-21.9c-41,0-80.5,7.8-117.3,23.3c-35.8,15.6-65.2,38.3-85,65.8
				c-20.4,28.4-29.6,60.5-26.4,92.8c-1.2,9.4-0.8,18.3,1.3,26.6c-5.5,24.3,1.1,48.9,19.3,71.4c18.1,22.4,47,41.6,83.7,55.7
				c36,13.8,78,21.9,121.5,23.2c4.3,0.1,8.5,0.2,12.7,0.2c38.8,0,76.7-5.4,110.6-15.6C424.67,912.46,470.57,860.66,461.97,809.26z
				 M117.87,629.36c35-14.7,72.5-22.1,111.5-22.1c37.6,0,77.2,7.4,111.6,20.9c68.9,28.2,111.4,86.5,106,145.4
				c-0.3,0.5-0.8,1-1.6,1.8c-4.6,3.9-16.1,10.9-39.5,20.2c-23.2,9.2-47,16.3-58.5,18.5c-1.1,0.2-2.1,0.4-3.2,0.6
				c-69.2,12.8-231.7,32-328.7-44.9C11.37,713.16,51.27,658.26,117.87,629.36z M426.07,872.86c-18.3,20.8-47.1,38-80.8,48.4
				c-73.2,22.3-165.5,19.4-235-7.4c-34.2-13.1-61-30.8-77.4-51.1c-8.9-11-14.5-22.5-16.7-34.1c18.6,22.6,52.8,39.5,101.2,49.3
				c41.8,8,84.7,12.1,125.1,12.1c40.6,0,78.6-4,110.6-12.1c14.4-3.6,42.1-11.6,65.8-23.7c11.4-5.8,20.6-12,27.5-18.4
				C443.37,848.36,436.47,861.06,426.07,872.86z M447.47,805.16c-0.9,15-19.8,27.7-35.5,35.8c-22.4,11.5-48.8,19-62.6,22.5
				c-72.7,18.4-166.1,12-229.1-0.1c-28.9-5.8-52.5-14.3-70.1-25.2c-21.8-13.5-33.3-29.4-35-48.7c40.7,28.4,94.2,45.4,159.4,50.6
				c49.5,3.9,97.6,0.4,136.7-4.9c0.1,0,0.2,0,0.3,0c3.3-0.5,6.6-0.9,9.8-1.4c0.6-0.1,1.1-0.2,1.7-0.3c0.7-0.1,1.5-0.2,2.2-0.3
				s1.5-0.2,2.2-0.3c0.6-0.1,1.3-0.2,1.9-0.3c0.9-0.2,1.9-0.3,2.8-0.5c0.4-0.1,0.8-0.1,1.2-0.2c1.3-0.2,2.7-0.4,4-0.7
				c0.3-0.1,0.7-0.1,1-0.2c1-0.2,2-0.3,3-0.5c0.4-0.1,0.8-0.1,1.2-0.2c0.9-0.2,1.9-0.3,2.8-0.5c0.4-0.1,0.7-0.1,1.1-0.2
				c1.2-0.2,2.5-0.5,3.7-0.7c0,0,0,0,0.1,0c14.7-2.7,41.6-11.3,64-20.4c5.3-2.2,10.2-4.3,14.7-6.3c6.3-2.9,11.7-5.7,16.1-8.3
				c1-0.6,1.9-1.2,2.8-1.7C447.87,796.86,447.67,801.16,447.47,805.16z"/>
		</g>
	</g>
</g>
</svg>