<?xml version="1.0" encoding="iso-8859-1"?>
<!-- Uploaded to: SVG Repo, www.svgrepo.com, Generator: SVG Repo Mixer Tools -->
<svg fill="#000000" height="800px" width="800px" version="1.1" id="Layer_1" xmlns="http://www.w3.org/2000/svg" xmlns:xlink="http://www.w3.org/1999/xlink" 
	 viewBox="0 0 461.8 461.8" xml:space="preserve">
<g>
	<g>
		<path d="M430.9,97.25c-20.6-36.9-48.5-57.2-78.4-57.2H109.3C48,40.05,0,123.65,0,230.25c0,51,10.8,98.6,30.4,134.1
			c20.4,37,48.4,57.4,78.9,57.4h243.2c30,0,57.8-20.4,78.4-57.4c19.9-35.8,30.9-83.4,30.9-134.1
			C461.8,180.15,450.8,132.95,430.9,97.25z M43.3,104.85c18-32.2,41.3-49.7,66-49.7h243.2c24.2,0,47.4,17.6,65.3,49.5
			c12.2,21.8,20.8,48.3,25.3,77.4c-2.8-2.5-6.7-4.2-12.4-4.2c-11.2,0-15.1,6.4-17.4,10.2c-2.1,3.5-3.7,6.1-14.9,6.1
			c-8.3,0-12.4-5.5-18.9-15.2c-7.8-11.6-17.5-26.1-40.7-26.1c-16.3,0-20.9,21-22.5,27.9c-3.1,14-4.6,32.7-6.2,52.5
			c-2.1,25.6-4.4,54.7-10.7,76.2c-8.5,29.1-20.6,32.5-28.9,32.5c-25.2,0-27.6-38.6-28.3-93.1c-0.3-22.8-0.5-44.3-4-61
			c-4.5-21.5-14.5-32.4-29.8-32.4c-36.2,0-39.6,29.3-41.8,48.7c-2.2,19.6-4.3,23.9-11.6,23.9c-12.4,0-18.3-12.6-25.9-31.9
			c-6.5-16.6-13.9-35.4-31.8-36.2c-20.1-1-27.9,17.5-34.3,32.3c-4.9,11.6-8.6,19.2-13.6,19.2c-0.1,0-0.2,0-0.2,0
			c-6.5-0.3-7.6-2.5-9.8-12.3c-1.9-8.7-4.7-21.3-19.5-25.8C24.6,147.65,32.6,124.35,43.3,104.85z M417.8,357.15
			c-17.8,32-41,49.7-65.3,49.7H109.3c-24.7,0-48.1-17.6-65.7-49.6c-18.4-33.4-28.5-78.4-28.5-126.9c0-14.4,0.9-28.5,2.7-42.1
			c4.4,2.2,5.6,6.6,7.2,13.9c2,9.2,5.1,23.1,23.7,24c0.4,0,0.8,0,1.2,0c15.1,0,21.6-15,27.2-28.3c6.3-14.7,10.8-23.6,19.8-23.2
			c7.6,0.4,12.3,10.8,18.5,26.7c7.3,18.5,16.3,41.4,39.8,41.4c9.9,0,17.4-4.7,21.5-13.6c3.1-6.7,4-14.9,5-23.5
			c2.5-22,5.2-35.4,26.9-35.4c17.9,0,18.3,39.9,18.8,78.5c0.3,24.8,0.6,50.4,5.3,70.3c6,25,18.7,37.7,37.9,37.7
			c20.3,0,34.9-14.6,43.3-43.3c6.7-23,9.1-52.9,11.2-79.2c1.5-19.3,3-37.5,5.9-50.4c2.6-11.9,5.9-16.1,7.8-16.1
			c15.2,0,21.3,9,28.2,19.5c6.8,10.2,14.6,21.9,31.3,21.9c18.2,0,23.6-6.6,27.7-13.3c1.8-2.9,1.8-2.9,4.5-2.9s3.1,0,4.7,6.3
			c1.2,4.7,3.3,12.5,11,15.6c0.2,5.2,0.4,10.4,0.4,15.6C446.8,278.55,436.5,323.55,417.8,357.15z"/>
	</g>
</g>
</svg>