<?xml version="1.0" encoding="iso-8859-1"?>
<!-- Uploaded to: SVG Repo, www.svgrepo.com, Generator: SVG Repo Mixer Tools -->
<svg fill="#000000" height="800px" width="800px" version="1.1" id="Layer_1" xmlns="http://www.w3.org/2000/svg" xmlns:xlink="http://www.w3.org/1999/xlink" 
	 viewBox="0 0 463 463" xml:space="preserve">
<g>
	<g>
		<path d="M425.6,265.4h-4.3v-61.5c0-14.6-5.6-28.5-15.8-39c-10.2-10.5-23.6-16.2-37.7-16.2h-4.3V70.9c0-21.4-17.9-38.9-39.9-38.9
			H138.2c-21.7,0-38.6,17.1-38.6,38.9v18.7v59.1h-3.1c-30.2,0-54.8,24.8-54.8,55.2v61.5h-5.6C16.2,265.4,0,282.3,0,303v120.5
			c0,4.1,3.4,7.5,7.5,7.5h448c4.1,0,7.5-3.4,7.5-7.5V303C463,282.6,445.9,265.4,425.6,265.4z M114.6,71c0-13.5,10.3-24,23.6-24
			h185.4c13.7,0,24.9,10.7,24.9,23.9v14.7c-9.4,5.7-23.7,13-31.1,13c-5.3,0-11-3.3-17.1-6.9c-7.6-4.4-16.2-9.4-26.4-9.4
			c-9.5,0-17.7,4.9-25,9.2c-6.1,3.7-11.9,7.1-17.3,7.1c-6.2,0-12.4-3.6-18.9-7.4c-7.5-4.4-15.3-8.9-24.7-8.9
			c-9.3,0-17.1,4.5-24.7,8.9c-6.5,3.8-12.7,7.4-18.9,7.4c-7.3,0-20.9-7.2-29.8-12.8V71z M114.5,103.1h0.1
			c8.8,4.9,20.7,10.4,29.8,10.4c10.3,0,18.9-5,26.4-9.4c6.1-3.5,11.8-6.9,17.1-6.9c5.3,0,11,3.3,17.1,6.9c7.6,4.4,16.2,9.4,26.4,9.4
			c9.5,0,17.7-4.9,25-9.2c6.1-3.7,11.9-7.1,17.3-7.1c6.2,0,12.4,3.6,18.9,7.4c7.5,4.4,15.3,8.9,24.7,8.9c9.3,0,21.9-5.7,31.1-10.7
			v45.9H114.5V103.1z M96.5,163.7h10.6H356h11.8c20.5,0,37.8,17.6,38.5,38.8c-11.1,7.6-34.3,21.5-47.2,21.5c-9.8,0-19-5.7-28.7-11.7
			c-10.6-6.6-21.6-13.4-34.8-13.4c-13.3,0-24.7,6.9-35.6,13.6c-9.6,5.9-18.7,11.4-27.8,11.4c-9.1,0-18.2-5.6-27.8-11.4
			c-11-6.7-22.3-13.6-35.6-13.6c-13.3,0-24.7,6.9-35.6,13.6c-9.6,5.9-18.7,11.4-27.8,11.4c-13,0-36.9-14-48.5-21.6
			C57.5,181,75,163.7,96.5,163.7z M56.6,220.2h0.1c13,7.9,33.8,18.8,48.5,18.8c13.3,0,24.7-6.9,35.6-13.6
			c9.6-5.9,18.7-11.4,27.8-11.4c9.1,0,18.2,5.6,27.8,11.4c11,6.7,22.3,13.6,35.6,13.6s24.7-6.9,35.6-13.6
			c9.6-5.9,18.7-11.4,27.8-11.4c8.9,0,17.6,5.4,26.9,11.2c10.5,6.5,22.4,13.9,36.6,13.9c14.6,0,34.6-10.7,47.3-18.6v45H56.6V220.2z
			 M15,303c0-12.4,9.5-22.6,21.1-22.6h13.1h364.6h11.8c12.1,0,22.4,10.4,22.4,22.6v24.5c-14.1,7.7-43.9,22-60.9,22
			c-11.8,0-23-5.6-35-11.6c-13.4-6.7-27.2-13.5-43.4-13.5c-15.5,0-28.9,6.8-42,13.4c-12,6-23.3,11.7-35.2,11.7
			c-12.7,0-24.4-5.8-36.7-12c-13-6.5-26.4-13.1-41.7-13.1c-15.5,0-28.9,6.8-42,13.4c-12,6-23.3,11.7-35.2,11.7
			c-17,0-46.9-14.3-60.9-22V303z M448,416L448,416H15v-71.6c15.1,7.7,42.3,20.1,60.9,20.1c15.5,0,28.9-6.8,42-13.4
			c12-6,23.3-11.7,35.2-11.7c11.8,0,23,5.6,35,11.6c13.4,6.7,27.2,13.5,43.4,13.5c15.5,0,28.9-6.8,42-13.4c12-6,23.3-11.7,35.2-11.7
			c12.7,0,24.4,5.8,36.7,12c13,6.5,26.4,13.1,41.7,13.1c18.7,0,45.8-12.3,60.9-20.1V416z"/>
	</g>
</g>
</svg>