<?xml version="1.0" encoding="iso-8859-1"?>
<!-- Uploaded to: SVG Repo, www.svgrepo.com, Generator: SVG Repo Mixer Tools -->
<svg fill="#000000" height="800px" width="800px" version="1.1" id="Layer_1" xmlns="http://www.w3.org/2000/svg" xmlns:xlink="http://www.w3.org/1999/xlink" 
	 viewBox="0 0 462.756 462.756" xml:space="preserve">
<g transform="translate(0 -540.36)">
	<g>
		<g>
			<path d="M443.1,642.276c-17.9-28.9-50.8-52.2-97.6-69.2c-34.4-12.5-63.3-16.6-64.5-16.8c-2-0.3-4,0.3-5.6,1.5L2.9,766.376
				c-1.9,1.4-2.9,3.6-2.9,6v182.4c0,4,3.1,7.3,7.1,7.5l446.8,25c0.1,0,0.3,0,0.4,0c1.9,0,3.8-0.7,5.2-2.1c1.5-1.4,2.3-3.4,2.3-5.4
				v-183.4C462.1,788.976,468.6,684.476,443.1,642.276z M14.9,779.076l182.9,10.2v52.5l-182.9-10.3V779.076z M212.8,871.176v-13.5
				l34.8,2v42.4l-232.6-13v-42.494l182.8,10.294v14.3c0,4.1,3.4,7.5,7.5,7.5C209.4,878.676,212.8,875.276,212.8,871.176z
				 M212.7,842.576v-52.5l34.8,1.9v52.6L212.7,842.576z M446.6,971.776l-431.7-24.1v-43.7l232.6,13v12.8c0,4.1,3.4,7.5,7.5,7.5
				c4.1,0,7.5-3.4,7.5-7.5v-11.9l184.1,10.3V971.776z M446.6,913.176l-184.1-10.3v-42.4l184.1,10.3V913.176z M446.7,855.776
				l-184.1-10.3v-52.5l184.1,10.3V855.776z M447.1,788.176l-417.5-23.3l252.3-193.2c18.2,3.1,113.3,21.9,148.4,78.4
				C450,682.776,448.2,763.276,447.1,788.176z"/>
			<path d="M279.9,656.176c-17.9,0-32.4,14.6-32.4,32.5s14.5,32.5,32.4,32.5c17.9,0,32.4-14.6,32.4-32.5
				S297.8,656.176,279.9,656.176z M279.9,706.176c-9.6,0-17.4-7.9-17.4-17.5c0-9.7,7.8-17.5,17.4-17.5c9.6,0,17.4,7.9,17.4,17.5
				C297.3,698.376,289.5,706.176,279.9,706.176z"/>
			<path d="M391.1,657.376c-3.5-2.3-8.1-1.3-10.4,2.2l-16.2,25c-2.3,3.5-1.3,8.1,2.2,10.4c1.3,0.8,2.7,1.2,4.1,1.2
				c2.4,0,4.8-1.2,6.3-3.4l16.2-25C395.6,664.276,394.6,659.676,391.1,657.376z"/>
			<path d="M315.7,635.276c1.5,1.5,3.4,2.2,5.3,2.2c1.9,0,3.8-0.7,5.3-2.2c2.9-2.9,2.9-7.7,0-10.6l-16.2-16.2
				c-2.9-2.9-7.7-2.9-10.6,0c-2.9,2.9-2.9,7.7,0,10.6L315.7,635.276z"/>
			<path d="M191.3,674.676l-16.2,16.2c-2.9,2.9-2.9,7.7,0,10.6c1.5,1.5,3.4,2.2,5.3,2.2c1.9,0,3.8-0.7,5.3-2.2l16.2-16.2
				c2.9-2.9,2.9-7.7,0-10.6C199,671.776,194.2,671.776,191.3,674.676z"/>
			<path d="M341.6,740.076l-24.9,17.5c-3.4,2.3-4.2,7-1.8,10.4c1.4,2.1,3.7,3.2,6.1,3.2c1.5,0,3-0.5,4.3-1.4l24.9-17.5
				c3.4-2.3,4.2-7,1.8-10.4C349.7,738.476,345,737.676,341.6,740.076z"/>
		</g>
	</g>
</g>
</svg>