<?xml version="1.0" encoding="iso-8859-1"?>
<!-- Uploaded to: SVG Repo, www.svgrepo.com, Generator: SVG Repo Mixer Tools -->
<svg fill="#000000" height="800px" width="800px" version="1.1" id="Layer_1" xmlns="http://www.w3.org/2000/svg" xmlns:xlink="http://www.w3.org/1999/xlink" 
	 viewBox="0 0 462.975 462.975" xml:space="preserve">
<g transform="translate(0 -540.36)">
	<g>
		<g>
			<path d="M461.4,766.598l-29.9-38.2l19.8-58.3c1-3.1,0-6.4-2.6-8.4c-2.6-2-6.1-2-8.8-0.2l-93.4,64v-32c0-22.3-18.3-41.2-39.9-41.2
				H157.5c-22.7,0-41.1,18.5-41.1,41.2v32.8l-94.7-64.9c-2.7-1.8-6.2-1.7-8.8,0.2c-2.6,2-3.6,5.3-2.6,8.4l19.9,58.4l-28.7,38.3
				c-2,2.7-2,6.3,0,9l28.7,38.3l-19.9,58.4c-1,3.1,0,6.4,2.6,8.4c1.3,1,2.9,1.5,4.5,1.5c1.5,0,3-0.4,4.2-1.3l94.7-64.9v32.8
				c0,23.4,18.4,42.5,41.1,42.5h149.3c22,0,39.9-19,39.9-42.5v-32l93.4,64c1.3,0.9,2.8,1.3,4.2,1.3c1.6,0,3.2-0.5,4.5-1.5
				c2.6-2,3.6-5.3,2.6-8.4l-19.8-58.3l29.9-38.2C463.5,773.199,463.5,769.298,461.4,766.598z M116.3,797.998l-84.5,57.9l13.9-40.8
				c0.8-2.3,0.4-4.9-1.1-6.9l-27.7-36.9l27.7-36.9c1.5-2,1.9-4.6,1.1-6.9l-13.9-40.8l84.5,57.9V797.998z M331.7,802.599v46.2
				c-0.1,15-11.4,27.6-24.9,27.6H157.5c-14.6,0-26.1-12.1-26.1-27.5v-155.4c0-14.2,12-26.2,26.1-26.2h149.3
				c13.2,0,24.9,12.2,24.9,26.2V802.599z M417.2,808.099c-1.6,2-2,4.6-1.2,7l13.9,40.8l-83.3-57.1v-55.1l83.3-57.1l-13.9,40.8
				c-0.8,2.4-0.4,5,1.2,7l28.8,36.8L417.2,808.099z"/>
			<path d="M231.487,706.849c-35.8,0-65,29.2-65,65s29.2,65,65,65s65-29.2,65-65S267.287,706.849,231.487,706.849z M231.487,821.849
				c-27.6,0-50-22.4-50-50s22.4-50,50-50c27.6,0,50,22.4,50,50S259.088,821.849,231.487,821.849z"/>
		</g>
	</g>
</g>
</svg>