<?xml version="1.0" encoding="iso-8859-1"?>
<!-- Uploaded to: SVG Repo, www.svgrepo.com, Generator: SVG Repo Mixer Tools -->
<svg fill="#000000" height="800px" width="800px" version="1.1" id="Layer_1" xmlns="http://www.w3.org/2000/svg" xmlns:xlink="http://www.w3.org/1999/xlink" 
	 viewBox="0 0 463.201 463.201" xml:space="preserve">
<g transform="translate(0 -540.36)">
	<g>
		<g>
			<path d="M336.764,740.461c-6.5,3.2-14.4,5.6-22.9,6.8c-0.1,0-0.3,0-0.4,0.1c-59.4,12-117.1-22.9-140.6-85
				c-0.4-8.5-4.3-14.7-10.3-21.9c-0.1-0.2-0.3-0.3-0.5-0.5c-3.5-3.5-8.8-5.9-14.2-6.9v-4.8c1-2.5,2.4-5.5,3-6.6
				c1.9-3.7,0.4-8.2-3.3-10.1c-3.7-1.9-8.2-0.4-10.1,3.3c-0.3,0.6-2.8,5.6-4.2,9.7c-0.3,0.8-0.4,1.6-0.4,2.4v7.4
				c-6.6,2.5-11.5,7.7-14.6,15.4c-4.6,10.6-2,23.1-1.7,24.4v0.1c0,0.1,0,0.2,0.1,0.3c9.6,32.9,33.8,62.8,66.4,82.3
				c25,14.9,52.6,22.6,79.9,22.6c9.1,0,18.1-0.9,27-2.6c17.6-3.5,35.9-11.4,54.2-23.5c3.3-2.1,4.4-6.5,2.4-9.9
				S340.264,738.761,336.764,740.461z M131.963,655.761c0-0.1,0.1-0.3,0.2-0.4c2.3-5.6,4.9-7.1,8.2-7.7c0.1,0,0.2,0,0.2,0
				c0.6-0.1,1.3-0.2,2-0.2c3.3,0,7,1.3,8.7,2.9c2.4,2.1,4.3,5.6,5.3,7.6l-26,5.5C130.663,660.761,130.864,658.161,131.963,655.761z
				 M133.663,678.161l27.1-5.7c12.3,29.6,32.9,54.6,58.4,71.1c17.5,11.3,36.6,18.1,56.3,20.4
				C216.263,769.461,153.864,731.961,133.663,678.161z"/>
			<path d="M415.164,772.061c0-0.1,0-0.1,0-0.2c0-22.9-2.2-47.2-4.6-72.8c-3.1-33.8-6.3-68.7-4.2-101.8l7.5-48.2
				c0.4-2.4-0.4-4.8-2.1-6.5s-4.1-2.5-6.5-2.1c-0.4,0.1-38.8,6.2-57.1,7.4c-77.7,5-156.4,5-234.1,0c-19.5-1.2-56.7-7.3-57.1-7.4
				c-2.4-0.4-4.9,0.4-6.6,2.2s-2.5,4.3-2,6.7c0,0.3,6.2,32.1,7.4,47.7v0.1c3.3,36.5,0.4,72.8-2.6,111.2c-1.4,18.1-2.9,36.8-3.7,55.8
				c-1.1,22.7,1.4,46.8,4.1,72.3c3.5,33.4,7.1,67.9,2.2,99.9c-3.7,23.9-6,41.1-7.1,51.1c-0.9,8-1.2,11.1,1.7,13.9
				c1.4,1.4,3.3,2.2,5.3,2.2c0.3,0,0.6,0,1.1-0.2l57.3-7.4h234.6c26.4,0,55.7,7.1,56,7.2c2.5,0.6,5.1-0.1,6.9-1.8s2.7-4.2,2.3-6.7
				c-0.1-0.4-6.3-38.4-7.5-57.8c-2.2-31,0.7-62.3,3.9-95.4C412.464,818.961,414.664,795.661,415.164,772.061z M391.264,937.862
				c0.8,13.7,3.9,35.4,5.9,48.4c-11.5-2.2-30.5-5.3-48.7-5.3h-235c-0.4,0-0.7,0.1-1,0.1l-48.8,6.3c0.9-7.4,2.7-21.7,6.9-48.7
				c5.3-33.9,1.5-69.4-2.1-103.7c-2.7-24.9-5.1-48.4-4.1-70c0.8-18.8,2.3-37.3,3.7-55.3c3.1-39.1,6.1-76,2.6-113.7
				c-0.9-10.7-3.7-27.8-5.6-39.1c12.7,2,34.2,5,48,5.9c78.3,5,157.7,5,236,0c13.1-0.9,35.3-4.1,48.3-6l-6,38.4
				c-0.1,0.3-0.1,0.5-0.1,0.7c-2.2,34.3,1.1,70,4.3,104.5c2.3,25.3,4.5,49.1,4.5,71.4c-0.5,23-2.7,46-4.8,68.2
				C392.064,873.762,388.964,905.562,391.264,937.862z"/>
			<path d="M323.964,814.361h-184.8c-4.1,0-7.5,3.4-7.5,7.5v82.1c0,4.1,3.4,7.5,7.5,7.5h184.8c4.1,0,7.5-3.3,7.5-7.5v-82.1
				C331.464,817.761,328.064,814.361,323.964,814.361z M316.464,896.461h-169.8v-67.1h169.8V896.461z"/>
		</g>
	</g>
</g>
</svg>