<?xml version="1.0" encoding="iso-8859-1"?>
<!-- Uploaded to: SVG Repo, www.svgrepo.com, Generator: SVG Repo Mixer Tools -->
<svg fill="#000000" height="800px" width="800px" version="1.1" id="Layer_1" xmlns="http://www.w3.org/2000/svg" xmlns:xlink="http://www.w3.org/1999/xlink" 
	 viewBox="0 0 462.971 462.971" xml:space="preserve">
<g transform="translate(0 -540.36)">
	<g>
		<g>
			<path d="M288.7,630.745c-13,0-23.5,10.5-23.5,23.5s10.5,23.5,23.5,23.5s23.5-10.5,23.5-23.5S301.7,630.745,288.7,630.745z
				 M288.7,662.745c-4.7,0-8.5-3.8-8.5-8.5s3.8-8.5,8.5-8.5s8.5,3.8,8.5,8.5S293.4,662.745,288.7,662.745z"/>
			<path d="M372.5,690.445c-13,0-23.5,10.5-23.5,23.5s10.5,23.5,23.5,23.5s23.5-10.5,23.5-23.5S385.5,690.445,372.5,690.445z
				 M372.5,722.445c-4.7,0-8.5-3.8-8.5-8.5s3.8-8.5,8.5-8.5s8.5,3.8,8.5,8.5S377.2,722.445,372.5,722.445z"/>
			<path d="M73.7,798.745c-13.2,0-24,10.8-24,24s10.8,24,24,24c13.3,0,24-10.8,24-24S86.9,798.745,73.7,798.745z M73.7,831.745
				c-5,0-9-4-9-9s4-9,9-9s9,4,9,9S78.7,831.745,73.7,831.745z"/>
			<path d="M139.7,779.245c13.3,0,24-10.8,24-24s-10.8-24-24-24s-24,10.8-24,24S126.5,779.245,139.7,779.245z M139.7,746.245
				c5,0,9,4,9,9s-4,9-9,9s-9-4-9-9S134.7,746.245,139.7,746.245z"/>
			<path d="M211.6,824.445c-15.2,0-27.5,12.3-27.5,27.5s12.3,27.5,27.5,27.5c15.2,0,27.5-12.3,27.5-27.5
				S226.8,824.445,211.6,824.445z M211.6,864.445c-6.9,0-12.5-5.6-12.5-12.5s5.6-12.5,12.5-12.5c6.9,0,12.5,5.6,12.5,12.5
				S218.5,864.445,211.6,864.445z"/>
			<path d="M446.3,666.345c-0.9-1.8-2.4-3.2-4.3-3.8c-1.9-0.6-4-0.5-5.7,0.4c-1,0.5-4.2,0.5-5.4,0.5c-14.2,0-26.1-11.5-26.1-25.2
				v-3.8c0-2.6-1.4-5-3.6-6.4s-5-1.5-7.3-0.3c-3.6,1.8-8.6,3-12.8,3c-22.9,0-42.3-19-42.3-41.5c0-3.6-2.5-6.6-6-7.4
				c-7-1.4-12.5-1.4-18.9-1.4c-53.9,0-104.6,33.1-130,84.4c-7.6-1-15.4-1.6-23.2-1.6c-42.9,0-83.2,15.6-113.5,43.9
				c-30.4,28.5-47.2,66.4-47.2,106.7c0,82.4,72.1,149.4,160.7,149.4c56.6,0,106.5-27.4,135.2-68.7c7,1.1,13.9,1.6,20.8,1.6
				c65.5,0,124-47.4,141.6-118.2C467.4,740.945,463.1,700.145,446.3,666.345z M160.6,948.545c-80.3,0-145.7-60.3-145.7-134.4
				c0-74.8,65.4-135.7,145.7-135.7s145.7,60.9,145.7,135.7C306.3,888.245,240.9,948.545,160.6,948.545z M443.5,774.645
				c-16.9,68.4-75.8,112.6-139.2,106.2c10.8-20.1,16.9-42.8,16.9-66.7c0-40.4-16.8-78.3-47.2-106.7c-21-19.6-46.8-33.1-74.9-39.6
				c23.5-44.1,67.7-72.3,114.6-72.3c3.9,0,7.1,0,10.3,0.3c3.4,27.7,28.1,49.9,56.9,49.9c3,0,6.1-0.4,9.2-1
				c3.2,19.1,20.2,33.7,40.6,33.7c1.3,0,2.8,0,4.5-0.1C448.5,707.845,451.5,742.645,443.5,774.645z"/>
			<path d="M235.7,757.245l-5.3,2.7v-4.8c0-4.1-3.4-7.5-7.5-7.5c-4.1,0-7.5,3.4-7.5,7.5v12.3l-12.1,6.1c-3.7,1.9-5.2,6.4-3.3,10.1
				c1.3,2.6,4,4.1,6.7,4.1c1.1,0,2.3-0.3,3.4-0.8l5.3-2.7v4.8c0,4.1,3.4,7.5,7.5,7.5c4.1,0,7.5-3.4,7.5-7.5v-12.3l12.1-6.1
				c3.7-1.9,5.1-6.4,3.3-10.1C243.9,756.845,239.4,755.345,235.7,757.245z"/>
			<path d="M379.8,781.645v-1.4c0-4.1-3.4-7.5-7.5-7.5c-4.1,0-7.5,3.4-7.5,7.5v5.9l-10.9,3.3c-4,1.2-6.2,5.4-5,9.4
				c1,3.2,4,5.3,7.2,5.3c0.7,0,1.5-0.1,2.2-0.3l6.5-2v12.4c0,4.1,3.4,7.5,7.5,7.5c4.1,0,7.5-3.4,7.5-7.5v-16.9l3.4-1
				c4-1.4,6.2-5.6,5-9.5C387.1,783.245,383.5,781.045,379.8,781.645z"/>
			<path d="M156.9,881.945h-11.8l-6.4-13.3c-1.8-3.7-6.3-5.3-10-3.5s-5.3,6.3-3.5,10l3.3,6.9h-5.2c-4.1,0-7.5,3.4-7.5,7.5
				s3.4,7.5,7.5,7.5h12.4l5.8,12.1c1.3,2.7,4,4.3,6.8,4.3c1.1,0,2.2-0.2,3.2-0.7c3.7-1.8,5.3-6.3,3.5-10l-2.7-5.6h4.6
				c4.1,0,7.5-3.4,7.5-7.5S161,881.945,156.9,881.945z"/>
		</g>
	</g>
</g>
</svg>