<?xml version="1.0" encoding="iso-8859-1"?>
<!-- Uploaded to: SVG Repo, www.svgrepo.com, Generator: SVG Repo Mixer Tools -->
<svg fill="#000000" height="800px" width="800px" version="1.1" id="Layer_1" xmlns="http://www.w3.org/2000/svg" xmlns:xlink="http://www.w3.org/1999/xlink" 
	 viewBox="0 0 463.071 463.071" xml:space="preserve">
<g>
	<g>
		<path d="M462.157,286.986c-2.7-30-40.3-74.5-42.7-77.3c-2-2.5-30.8-38.2-51-52.7c-12-9.3-36.1-20.3-47.4-25.2l0.4-1.7
			c1-3.9-1.3-7.8-5.1-9c-2.3-0.7-56.1-17-84.3-17c-29.4,0-83.2,16.4-85.5,17c-3.8,1.2-6.1,5.1-5.1,9l0.5,2.2
			c-11.4,4.8-35.6,15.5-47.5,24.7c-19.1,14.5-49.7,51.1-51,52.6c-1.6,1.9-38.7,47-42.7,77.2c-2.6,21.2,1,49.2,18.7,64.5
			c0.1,0.1,0.3,0.2,0.4,0.3c6.6,5,14.8,7.4,24.7,7.4c9.1,0,19.8-2.1,32-6.3c19-6.2,44.7-31.1,51.2-37.7l63-16h81.5l63,16
			c7,6.8,33.1,31.4,51.1,37.6c0.1,0,0.1,0,0.2,0.1c7.9,2.5,19.8,6.3,31.9,6.3c8.5,0,17.2-1.9,24.6-7.5c0.1,0,0.1-0.1,0.2-0.1
			C464.457,334.686,464.257,303.886,462.157,286.986z M71.857,338.486h-0.1c-20.3,7-34.2,7.4-42.6,1.2c-13.1-11.5-15.5-33.9-13.4-51
			c2.4-18.1,21.6-46.5,33.6-62.2l64.6,81.2C103.557,317.786,84.457,334.486,71.857,338.486z M126.757,299.886l-5.6-7l-62.2-78.2
			c8.9-10.3,30.6-35.1,44.6-45.7c9.9-7.6,30.7-17,42.1-21.9l35,139.2L126.757,299.886z M267.257,284.186h-71.6l-37.9-150.7
			c15.4-4.4,53-14.4,74.4-14.4c20.4,0,57.7,10,73,14.4L267.257,284.186z M282.357,286.186l35-139.6c11.4,5.1,32.1,14.7,42,22.4
			c0.1,0.1,0.2,0.1,0.3,0.2c14.8,10.5,35.9,35.1,44.5,45.4l-67.8,85.3L282.357,286.186z M433.957,339.686c-10.3,7.6-26.6,4-42.8-1.2
			c-11.8-4.1-31.3-20.8-42-30.9l64.6-81.2c12.2,15.6,31.9,44,33.5,62c0,0.1,0,0.2,0,0.2
			C448.657,299.786,449.957,326.886,433.957,339.686z"/>
	</g>
</g>
</svg>