<?xml version="1.0" encoding="iso-8859-1"?>
<!-- Uploaded to: SVG Repo, www.svgrepo.com, Generator: SVG Repo Mixer Tools -->
<!DOCTYPE svg PUBLIC "-//W3C//DTD SVG 1.1//EN" "http://www.w3.org/Graphics/SVG/1.1/DTD/svg11.dtd">
<svg fill="#000000" version="1.1" id="Capa_1" xmlns="http://www.w3.org/2000/svg" xmlns:xlink="http://www.w3.org/1999/xlink" 
	 width="800px" height="800px" viewBox="0 0 74.246 74.246"
	 xml:space="preserve">
<g>
	<g>
		<circle cx="50.37" cy="8.188" r="5.072"/>
		<circle cx="60.763" cy="11.257" r="3.347"/>
		<path d="M67.569,12.724c1.649,0,2.986,1.335,2.986,2.985s-1.337,2.985-2.986,2.985c-1.646,0-2.983-1.335-2.983-2.985
			S65.923,12.724,67.569,12.724z"/>
		<circle cx="71.811" cy="20.805" r="2.168"/>
		<circle cx="72.862" cy="26.269" r="1.382"/>
		<path d="M60.53,19.911c-5.972-3.447-13.228-2.042-16.214,3.135c-2.992,5.176-1.843,14.358,4.127,17.807
			c5.967,3.446,14.491-0.153,17.479-5.332C68.909,30.346,66.498,23.354,60.53,19.911z"/>
		<path d="M46.466,44.273c-3.719-2.146-5.539-5.953-7.401-2.73c-1.861,3.224-0.357,7.578,3.361,9.727
			c3.716,2.145,8.236,1.271,10.098-1.952C54.385,46.092,50.179,46.42,46.466,44.273z"/>
		<circle cx="23.877" cy="26.874" r="5.072"/>
		<circle cx="13.484" cy="29.943" r="3.347"/>
		<circle cx="6.675" cy="34.398" r="2.988"/>
		<circle cx="2.438" cy="39.49" r="2.166"/>
		<circle cx="1.383" cy="44.956" r="1.382"/>
		<path d="M29.931,41.732c-2.987-5.177-10.247-6.58-16.215-3.137C7.75,42.043,5.338,49.032,8.325,54.208
			c2.988,5.178,11.514,8.772,17.479,5.33C31.774,56.092,32.921,46.908,29.931,41.732z"/>
		<path d="M27.782,62.96c-3.716,2.145-7.923,1.818-6.062,5.041c1.863,3.224,6.382,4.1,10.099,1.953
			c3.72-2.146,5.222-6.501,3.361-9.727C33.318,57,31.5,60.813,27.782,62.96z"/>
	</g>
</g>
</svg>