<?xml version="1.0" encoding="iso-8859-1"?>
<!-- Uploaded to: SVG Repo, www.svgrepo.com, Generator: SVG Repo Mixer Tools -->
<!DOCTYPE svg PUBLIC "-//W3C//DTD SVG 1.1//EN" "http://www.w3.org/Graphics/SVG/1.1/DTD/svg11.dtd">
<svg fill="#000000" version="1.1" id="Capa_1" xmlns="http://www.w3.org/2000/svg" xmlns:xlink="http://www.w3.org/1999/xlink" 
	 width="800px" height="800px" viewBox="0 0 52.027 52.027"
	 xml:space="preserve">
<g>
	<g>
		<path d="M12.218,45.309c0-1.499-1.214-2.713-2.715-2.713H2.716C1.217,42.596,0,43.81,0,45.309v4.409h12.217L12.218,45.309
			L12.218,45.309z"/>
		<path d="M25.621,45.309c0-1.499-1.215-2.713-2.717-2.713h-6.785c-1.5,0-2.716,1.214-2.716,2.713v4.409H25.62L25.621,45.309
			L25.621,45.309z"/>
		<path d="M16.172,42.028h7.615c0.062-0.273,0.096-0.558,0.096-0.848c0-2.155-1.748-3.901-3.902-3.901s-3.902,1.746-3.902,3.901
			C16.077,41.47,16.111,41.754,16.172,42.028z"/>
		<path d="M10.325,41.18c0-2.155-1.747-3.901-3.902-3.901c-2.154,0-3.902,1.746-3.902,3.901c0,0.29,0.034,0.575,0.095,0.848h7.614
			C10.291,41.754,10.325,41.47,10.325,41.18z"/>
		<path d="M15.531,40.659c0.021-1.428,0.726-2.691,1.801-3.482c-0.055-2.196-1.856-3.971-4.068-3.971
			c-2.225,0-4.037,1.795-4.068,4.011c1.033,0.787,1.71,2.015,1.743,3.399c0.662,0.462,1.46,0.734,2.325,0.734
			C14.103,41.35,14.882,41.094,15.531,40.659z"/>
		<path d="M38.624,45.196c0-1.502-1.216-2.716-2.714-2.716h-6.789c-1.498,0-2.714,1.214-2.714,2.716v4.411h12.217V45.196z"/>
		<path d="M52.027,45.196c0-1.502-1.217-2.716-2.715-2.716h-6.787c-1.497,0-2.714,1.214-2.714,2.716v4.411h12.216V45.196z"/>
		<path d="M42.483,41.066c0,0.292,0.034,0.575,0.096,0.849h7.612c0.063-0.275,0.096-0.557,0.096-0.849
			c0-2.154-1.745-3.902-3.9-3.902C44.229,37.164,42.483,38.912,42.483,41.066z"/>
		<path d="M28.927,41.066c0,0.292,0.034,0.575,0.093,0.849h7.614c0.062-0.275,0.095-0.557,0.095-0.849
			c0-2.154-1.747-3.902-3.9-3.902C30.672,37.164,28.927,38.912,28.927,41.066z"/>
		<path d="M41.933,40.546c0.022-1.43,0.729-2.692,1.803-3.483c-0.055-2.198-1.856-3.971-4.066-3.971
			c-2.227,0-4.038,1.795-4.07,4.013c1.033,0.784,1.71,2.011,1.744,3.398c0.661,0.461,1.461,0.732,2.326,0.732
			C40.507,41.236,41.287,40.981,41.933,40.546z"/>
		<path d="M51.329,2.309H1.043v27.3h50.284v-27.3H51.329z M26.186,24.504c-4.719,0-8.546-3.826-8.546-8.546
			c0-4.72,3.827-8.546,8.546-8.546c4.72,0,8.545,3.826,8.545,8.546C34.731,20.679,30.906,24.504,26.186,24.504z"/>
		<polygon points="23.774,14.048 24.038,15.252 25.346,14.627 25.368,14.627 25.368,20.068 26.921,20.068 26.921,13.202 
			25.602,13.202 		"/>
	</g>
</g>
</svg>