<?xml version="1.0" encoding="iso-8859-1"?>
<!-- Uploaded to: SVG Repo, www.svgrepo.com, Generator: SVG Repo Mixer Tools -->
<svg fill="#000000" height="800px" width="800px" version="1.1" id="Layer_1" xmlns="http://www.w3.org/2000/svg" xmlns:xlink="http://www.w3.org/1999/xlink" 
	 viewBox="0 0 463.09 463.09" xml:space="preserve">
<g transform="translate(0 -540.36)">
	<g>
		<g>
			<path d="M463.024,747.331c-15.4-120.5-116.5-209.4-235.3-206.9c-57.7,0.6-112.7,23-154.9,63c-41.9,39.8-67.8,93.6-72.8,151.6
				c-0.3,3.7,2.2,7.1,5.8,8c1.8,0.4,15.8,3.6,36.5,7.8l39.6,210.2l4.8,1.1c3.9,0.9,95.9,21.3,144.7,21.3
				c47.6,0,139.6-20.5,143.5-21.3l4.8-1.1l40.9-216.4c20.8-4.9,34.9-8.6,36.7-9C461.124,754.631,463.524,751.131,463.024,747.331z
				 M367.024,968.531c-19.8,4.2-95.5,19.9-135.4,19.9c-41,0-116.9-15.7-136.7-19.9l-36.6-194.5c48.8,9.5,120.9,21.7,169,21.7
				c1.5,0,2.9,0,4.4,0c47.9-0.8,122.8-15.9,173.1-27.3L367.024,968.531z M231.524,780.631c-65.2,1.1-186.5-24.4-215.7-30.7
				c12.6-110.1,102.8-193.2,212.3-194.4c108.9-2.4,202,77.7,219.2,187.2C417.924,750.031,296.724,779.531,231.524,780.631z"/>
			<path d="M224.124,837.931v115.7c0,4.1,3.4,7.5,7.5,7.5c4.1,0,7.5-3.4,7.5-7.5v-115.7c0-4.1-3.4-7.5-7.5-7.5
				C227.524,830.431,224.124,833.831,224.124,837.931z"/>
			<path d="M280.424,953.531c0.3,0.1,0.7,0.1,1,0.1c3.7,0,6.9-2.7,7.5-6.5l16.2-117c0.6-4.1-2.3-7.9-6.4-8.5
				c-4.1-0.6-7.9,2.3-8.5,6.4l-16.2,117C273.424,949.131,276.324,952.931,280.424,953.531z"/>
			<path d="M329.624,944.731c0.5,0.1,1.1,0.2,1.6,0.2c3.4,0,6.5-2.4,7.3-6l24.9-115.7c0.8-4-1.8-8-5.8-8.9c-4-0.8-8,1.8-8.9,5.8
				l-24.9,115.7C323.024,939.831,325.624,943.831,329.624,944.731z"/>
			<path d="M248.924,597.131c-1-4-5.1-6.5-9.1-5.5l-41.1,10c-4,1-6.5,5.1-5.5,9.1c0.8,3.4,3.9,5.7,7.3,5.7c0.6,0,1.2,0,1.8-0.2
				l41.1-10C247.424,605.231,249.924,601.131,248.924,597.131z"/>
			<path d="M319.024,617.331c-2.9-2.9-7.7-2.9-10.6,0c-2.9,2.9-2.9,7.7,0,10.6l24.9,24.9c1.5,1.5,3.4,2.2,5.3,2.2
				c1.9,0,3.9-0.7,5.3-2.2c2.9-2.9,2.9-7.7,0-10.6L319.024,617.331z"/>
			<path d="M253.224,665.731l-33.6,16.2c-3.7,1.8-5.3,6.3-3.5,10c1.3,2.6,4,4.2,6.8,4.2c1.1,0,2.2-0.3,3.2-0.7l33.6-16.2
				c3.7-1.8,5.3-6.3,3.5-10S256.924,663.931,253.224,665.731z"/>
			<path d="M145.924,695.731c-2.3-3.5-6.9-4.5-10.4-2.3c-3.5,2.3-4.5,6.9-2.3,10.4l19.9,31.1c1.4,2.3,3.8,3.5,6.3,3.5
				c1.4,0,2.8-0.4,4.1-1.2c3.5-2.3,4.5-6.9,2.3-10.4L145.924,695.731z"/>
			<path d="M299.324,706.231c-4-1-8.1,1.4-9.1,5.4l-8.7,33.6c-1,4,1.4,8.1,5.4,9.1c0.6,0.1,1.3,0.2,1.9,0.2c3.4,0,6.4-2.2,7.2-5.6
				l8.7-33.6C305.724,711.331,303.324,707.231,299.324,706.231z"/>
			<path d="M138.124,651.831c2.4-3.3,1.6-8-1.8-10.4l-24.9-17.4c-3.3-2.4-8-1.6-10.4,1.8c-2.4,3.3-1.6,8,1.8,10.4l24.9,17.4
				c1.3,1,2.8,1.4,4.3,1.4C134.424,655.031,136.724,653.931,138.124,651.831z"/>
			<path d="M356.224,715.331c0.9,3.4,4,5.6,7.3,5.6c0.6,0,1.3,0,1.8-0.2l33.6-8.7c4-1,6.4-5.1,5.4-9.1s-5.1-6.4-9.1-5.4l-33.6,8.7
				C357.624,707.231,355.224,711.331,356.224,715.331z"/>
			<path d="M77.724,698.431c-3.5-2.3-8.1-1.3-10.4,2.2l-16.2,24.9c-2.3,3.5-1.3,8.1,2.2,10.4c1.3,0.8,2.7,1.2,4.1,1.2
				c2.4,0,4.8-1.2,6.3-3.4l16.2-24.9C82.224,705.331,81.224,700.731,77.724,698.431z"/>
			<path d="M171.824,828.031c-0.6-4.1-4.4-6.9-8.5-6.3c-4.1,0.6-6.9,4.4-6.3,8.5l17.4,117c0.5,3.7,3.7,6.4,7.4,6.4
				c0.4,0,0.8,0,1.1-0.1c4.1-0.6,6.9-4.4,6.3-8.5L171.824,828.031z"/>
			<path d="M114.524,820.231c-0.9-4.1-4.8-6.7-8.9-5.8c-4.1,0.9-6.7,4.9-5.8,8.9l24.9,115.7c0.7,3.5,3.8,5.9,7.3,5.9
				c0.6,0,1.1,0,1.6-0.1c4.1-0.9,6.7-4.9,5.8-8.9L114.524,820.231z"/>
		</g>
	</g>
</g>
</svg>