<?xml version="1.0" encoding="iso-8859-1"?>
<!-- Uploaded to: SVG Repo, www.svgrepo.com, Generator: SVG Repo Mixer Tools -->
<svg fill="#000000" height="800px" width="800px" version="1.1" id="Layer_1" xmlns="http://www.w3.org/2000/svg" xmlns:xlink="http://www.w3.org/1999/xlink" 
	 viewBox="0 0 422.997 422.997" xml:space="preserve">
<g>
	<g>
		<path d="M421.122,176.263c-1.4-1.7-3.5-2.7-5.7-2.7h-17.7c-0.9-20.1-7.2-39.5-18.3-56.5c-11.8-18-28.6-32.5-48.4-41.9
			c-39.6-18.8-85.1-13.7-119.5,13.1c-20-15.5-44.4-23.9-70.1-24c-30.3-0.6-59.2,10.9-81.3,32.5c-21.1,20.6-33.5,47.8-35,76.9h-17.7
			c-2.2,0-4.3,1-5.7,2.7c-1.4,1.7-2,3.9-1.6,6.1c11.3,65,54.7,120.4,116.3,149v27.6h190.2v-27.6c61.6-28.6,105-84.1,116.3-149
			C423.222,180.163,422.622,177.963,421.122,176.263z M324.622,88.663c34.4,16.3,56.3,48.5,58.1,84.9h-17.7
			c-2.9-29.5-21.3-55.8-47.8-67.9c-27.1-13.1-57.9-10.1-82,7.4c-3.6-5.2-7.7-10.1-12.3-14.7
			C252.622,76.563,291.022,72.763,324.622,88.663z M254.822,160.963c7-11,21.7-16.4,36.3-13.2c12.6,2.7,22.3,13.1,24.8,25.9h-59.7
			v-0.1C255.922,169.263,255.522,165.063,254.822,160.963z M294.422,133.063c-16.4-3.6-32.6,0.5-43.9,10.2c-2-6-4.5-11.8-7.4-17.4
			c19.7-14.9,45.3-17.5,67.7-6.7c0,0,0.1,0,0.1,0.1c21.3,9.7,36.2,30.7,39,54.3h-18.7
			C328.522,153.663,313.722,137.263,294.422,133.063z M70.522,107.463c19.2-18.8,44.3-28.8,70.6-28.2c0.1,0,0.1,0,0.2,0
			c53.3,0,96.2,41,99.9,94.3h-18.8c-3.7-43.1-39.5-76.3-83.6-76.3c-0.1,0-0.2,0-0.2,0c-21.4,0.7-41.7,9.8-57.1,25.6
			c-13.7,14.1-21.9,31.8-23.7,50.7h-17.7C41.622,148.563,52.322,125.263,70.522,107.463z M140.122,131.563
			c-23.9,0-44.7,18.4-48.3,42h-18.8c3.8-32.9,32.5-60.2,66-61.3c35.7,0.1,64.7,26.6,68.4,61.3h-17.7
			C185.522,149.063,165.122,131.563,140.122,131.563z M174.322,173.563h-67.3c3.5-15.1,17.5-27,33-27
			C156.722,146.663,170.522,157.763,174.322,173.563z M291.522,343.963h-160.2v-10.4h160.2V343.963z M298.722,318.563h-174.5
			c-55.2-25-94.8-73.1-107.6-129.9h389.7C393.522,245.463,353.822,293.463,298.722,318.563z"/>
	</g>
</g>
</svg>