<svg xmlns="http://www.w3.org/2000/svg" xmlns:xlink="http://www.w3.org/1999/xlink" version="1.1" x="0px" y="0px" viewBox="-55 147 500 625" style="enable-background:new -55 147 500 500;" xml:space="preserve"><path d="M143,479.5c-6,8.8-4,20.6,4.5,26.3c8.5,5.8,20.3,3.3,26.3-5.5s4-20.6-4.5-26.3C160.8,468.2,149,470.7,143,479.5z"/><path d="M-13.3,565.8h113.5c2.2,0,4.3-0.7,5.9-1.9c1.6-0.7,3.2-1.7,4.6-3l33.8-32.3c6.2-5.9,6.2-15.5,0-21.5  c-6.2-5.9-16.3-5.9-22.5,0l-33.8,32.3c-0.3,0.3-0.6,0.6-0.8,0.9l-25.5-31.5c-1.8-2.2-4.4-3.5-7.3-3.7s-5.7,0.8-7.8,2.7L5,546.5  h-18.3c-5.6,0-10.1,4.3-10.1,9.7C-23.4,561.4-18.9,565.8-13.3,565.8z M52.9,529.1l14,17.3H34.2L52.9,529.1z"/><path d="M60.4,385.1c8.5,0,16.6-2.7,23.3-7.9c3.9-3,9.3-3,13.2,0c6.8,5.2,14.8,7.9,23.3,7.9c12.5,0,24.2-6.1,31.4-16.4  c2.2-3.2,6.1-4.9,10-4.6c1.3,0.1,2.6,0.2,3.9,0.2c12.5,0,24.2-6.1,31.4-16.3c2.9-4.1,8.2-5.7,12.9-3.8c9,3.5,19.2,3.5,28.2,0  c4.7-1.8,10-0.3,12.9,3.8c7.9,11.3,21.5,17.5,35.3,16.1c3.9-0.4,7.7,1.4,10,4.6c7.2,10.3,18.9,16.4,31.4,16.4  c8.5,0,16.6-2.7,23.3-7.9c1.9-1.4,4.2-2.2,6.6-2.2s4.7,0.8,6.6,2.2c6.8,5.2,14.8,7.9,23.3,7.9c21.2,0,38.4-17.2,38.4-38.3  c0-19.2-14.4-35.6-33.4-38l0,0c-3.1-0.4-5.9-2.1-7.7-4.8c-1.7-2.6-2.2-5.9-1.4-8.9c1-3.4,1.5-7,1.5-10.5c0-21.1-17.2-38.3-38.4-38.3  c-2.6,0-5.2,0.3-7.7,0.8c-3.3,0.7-6.6-0.2-9.1-2.3c-2.5-2.1-4-5.2-3.9-8.5v-0.9c0-21-17.2-38.2-38.4-38.2c-5.1,0-10,1-14.6,2.9  c-5.4,2.2-11.6-0.2-14-5.5c-6-13.8-19.7-22.6-34.7-22.6s-28.7,8.8-34.9,22.5c-2.4,5.3-8.6,7.8-14,5.5c-4.6-1.9-9.6-2.9-14.6-2.9  c-21.2,0-38.4,17.2-38.4,38.3v0.7c0.1,3.3-1.4,6.4-3.9,8.5s-5.9,3-9.1,2.3c-2.5-0.5-5.1-0.8-7.7-0.8c-21.2,0-38.4,17.2-38.4,38.3  c0,3.6,0.5,7.1,1.5,10.6c0.9,3,0.4,6.3-1.4,8.9c-1.7,2.6-4.5,4.4-7.7,4.8c-19.1,2.4-33.4,18.8-33.4,38  C22,367.9,39.2,385.1,60.4,385.1z"/><path d="M439.2,610.4H259.3c-15.6-64.7-18.3-190.7-19.5-246.6c-0.1-3.4-0.1-6.5-0.2-9.4c-10,3.4-21.2,3.4-31.3,0  c-0.1,2.9-0.1,6-0.2,9.4c-1.2,55.9-3.9,181.9-19.5,246.6h-56.5c0-0.7-0.2-1.5-0.5-2.2l-13.7-30.7l64.1-60.9c2.4-2.2,2.4-5.9,0-8.1  c-2.3-2.2-6.2-2.3-8.5,0l-65,61.8H-29.9c-3.3,0-6,2.6-6,5.7c0,3.1,2.7,5.7,6,5.7h12.1l-11.8,26.5c-0.3,0.7-0.5,1.5-0.5,2.2h-19  c-3.2,0-5.8,2.6-5.8,5.8c0,3.2,2.6,5.8,5.8,5.8h488.3c3.2,0,5.8-2.6,5.8-5.8C445,613,442.4,610.4,439.2,610.4z M-4.8,581.7h111.5  l12.8,28.7H-17.6L-4.8,581.7z"/><text x="-55" y="662" fill="#000000" font-size="5px" font-weight="bold" font-family="'Helvetica Neue', Helvetica, Arial-Unicode, Arial, Sans-serif">Created by IronSV</text><text x="-55" y="667" fill="#000000" font-size="5px" font-weight="bold" font-family="'Helvetica Neue', Helvetica, Arial-Unicode, Arial, Sans-serif">from the Noun Project</text></svg>